<svg id="Layer_1" data-name="Layer 1" xmlns="http://www.w3.org/2000/svg" width="887.98" height="375.2" viewBox="0 0 887.98 375.2">
  <g>
    <path d="M150.73,100.9q0,26.64-4.32,43.44T134.17,170.5a40.38,40.38,0,0,1-19.08,12.84,82.34,82.34,0,0,1-24.6,3.48A81.16,81.16,0,0,1,66,183.34a40.43,40.43,0,0,1-19-12.84q-7.92-9.36-12.24-26.16T30.49,100.9q0-26.64,4.32-43.44T47.05,31.3A40.43,40.43,0,0,1,66,18.46,81.16,81.16,0,0,1,90.49,15a82.34,82.34,0,0,1,24.6,3.48A40.38,40.38,0,0,1,134.17,31.3q7.92,9.36,12.24,26.16T150.73,100.9Zm-94.56,0a253.14,253.14,0,0,0,1.56,30.84q1.56,12.36,5.52,19.92a23.82,23.82,0,0,0,10.56,10.8q6.6,3.24,16.68,3.24t16.68-3.24a23.82,23.82,0,0,0,10.56-10.8q4-7.56,5.64-19.92a235.25,235.25,0,0,0,1.68-30.84,235.25,235.25,0,0,0-1.68-30.84q-1.68-12.36-5.64-19.92a23.82,23.82,0,0,0-10.56-10.8q-6.6-3.24-16.68-3.24T73.81,39.34a23.82,23.82,0,0,0-10.56,10.8q-4,7.56-5.52,19.92A253.14,253.14,0,0,0,56.17,100.9Z" transform="translate(-30.49 -11.62)"/>
    <path d="M203.05,155.62q0,6.48,2.16,8.4t7.68,2.16a15.59,15.59,0,0,1,5.76,1.2q1.92,1,1.92,4.56v11a51.75,51.75,0,0,1-7.92,1.8,61.19,61.19,0,0,1-8.88.6,28.57,28.57,0,0,1-12.24-2.28,18.12,18.12,0,0,1-7.68-6.84,29.93,29.93,0,0,1-4-11.4,103.56,103.56,0,0,1-1.08-16V11.62h18.48a6,6,0,0,1,4.2,1.44,5.28,5.28,0,0,1,1.56,4.08Z" transform="translate(-30.49 -11.62)"/>
    <path d="M253.93,42.58q-7.92,0-11.4-3t-3.48-10.2q0-7,3.48-10.08t11.4-3.12q7.68,0,11.28,3.12t3.6,10.08q0,7.2-3.6,10.2T253.93,42.58Zm12.24,141.36H247.69q-5.76,0-5.76-5.52V61.78h18.48q5.76,0,5.76,5.52Z" transform="translate(-30.49 -11.62)"/>
    <path d="M330.67,183.94c-2.23,0-3.79-.44-4.67-1.32a13.33,13.33,0,0,1-2.51-4,537.48,537.48,0,0,1-22.69-57.84,311.14,311.14,0,0,1-13.27-59h19.68q5,0,5.76,5.52,1.44,11.52,4.09,24T323,116.38q3.25,12.6,7.35,24.6t8.45,22.08a233.82,233.82,0,0,0,8.67-23q4.1-12.72,7.6-26.28t6.15-26.88q2.64-13.32,4.1-25.08h18.24q5,0,5,5.28-.24,2.64-.73,5.88t-1.2,7.32A360.67,360.67,0,0,1,372.8,132a483.45,483.45,0,0,1-21.54,52Z" transform="translate(-30.49 -11.62)"/>
    <path d="M422.65,42.58c-5.28,0-9.09-1-11.4-3s-3.48-5.4-3.48-10.2c0-4.64,1.15-8,3.48-10.08s6.12-3.12,11.4-3.12c5.11,0,8.88,1,11.28,3.12s3.6,5.44,3.6,10.08q0,7.2-3.6,10.2C431.53,41.58,427.76,42.58,422.65,42.58Zm12.24,141.36H416.41q-5.76,0-5.76-5.52V61.78h18.47q5.78,0,5.77,5.52Z" transform="translate(-30.49 -11.62)"/>
    <path d="M484.8,131.86A86.06,86.06,0,0,0,487,148.18a24.08,24.08,0,0,0,5.64,10.92,23,23,0,0,0,10.68,6.12,64.41,64.41,0,0,0,17.28,1.92,138.13,138.13,0,0,0,17-1,102.2,102.2,0,0,1,10.56-1q5.52,0,5.52,5.28v10.08a78.64,78.64,0,0,1-15.72,4.2,130,130,0,0,1-22.92,1.8,75.32,75.32,0,0,1-23.76-3.36A37.34,37.34,0,0,1,474.6,172.3q-6.6-7.56-9.72-19.68t-3.12-29.4q0-17.28,3.12-29.52t9.48-20a36.25,36.25,0,0,1,15.72-11.28,62.55,62.55,0,0,1,21.84-3.48q13.92,0,22.8,4a34.51,34.51,0,0,1,13.92,10.68,39.59,39.59,0,0,1,7,15.72,92.52,92.52,0,0,1,1.92,19.32A121.7,121.7,0,0,1,556.8,122a46.14,46.14,0,0,1-1.92,9.84Zm50.64-17q.24-2.4.24-3.6V108.1q0-15.36-4.68-23.16t-18.36-7.8q-8.16,0-13.44,2.64a21,21,0,0,0-8.4,7.44,32.57,32.57,0,0,0-4.44,11.88,101.49,101.49,0,0,0-1.56,15.72Z" transform="translate(-30.49 -11.62)"/>
    <path d="M639.12,61.06q4.8,0,6.48,1.56a5.45,5.45,0,0,1,1.68,4.2V82.9a23.73,23.73,0,0,0-3.36-.24H640.8a49.06,49.06,0,0,0-17.88,3.12,41,41,0,0,0-15,10.56v87.6H589.44q-5.76,0-5.76-5.52V61.78h14.64a6.61,6.61,0,0,1,4.56,1.32A8.8,8.8,0,0,1,605,67.78l1,10.56a55.59,55.59,0,0,1,14.16-12A35.67,35.67,0,0,1,639.12,61.06Z" transform="translate(-30.49 -11.62)"/>
    <path d="M39.61,383.94q-5.76,0-5.76-5.52V220.5q5.52-1,11.88-1.8t13-1.44q6.6-.6,12.84-1t11.76-.36q17,0,29.28,4.32a44.22,44.22,0,0,1,20.16,14.16q7.92,9.84,11.64,25.92t3.72,39.36q0,23.28-3.72,39.36t-11.4,26a43.24,43.24,0,0,1-19.8,14.4q-12.12,4.44-28.92,4.44ZM82.33,236.1q-5.52,0-12.24.48t-11,1.2v126h22.8a63.53,63.53,0,0,0,18-2.28,23.81,23.81,0,0,0,12.72-9.24q5-7,7.44-19.8t2.4-34q0-18.72-2-30.84t-6.72-19.2a23.8,23.8,0,0,0-12.36-9.72Q93.61,236.1,82.33,236.1Z" transform="translate(-30.49 -11.62)"/>
    <path d="M224.65,386.82q-27.12,0-39.24-15.36t-12.12-48.72q0-33.12,12.12-48.48t39.24-15.36q27.12,0,39.24,15.36T276,322.74q0,33.36-12.12,48.72T224.65,386.82Zm26.88-64.08a124.65,124.65,0,0,0-1.56-21.6q-1.56-8.64-4.8-13.8a18,18,0,0,0-8.4-7.32,35.08,35.08,0,0,0-24.24,0,18,18,0,0,0-8.4,7.32q-3.24,5.16-4.8,13.8a124.65,124.65,0,0,0-1.56,21.6,128.54,128.54,0,0,0,1.56,22q1.56,8.76,4.8,13.92a17.36,17.36,0,0,0,8.4,7.2,37,37,0,0,0,24.24,0,17.36,17.36,0,0,0,8.4-7.2q3.24-5.16,4.8-13.92A128.54,128.54,0,0,0,251.53,322.74Z" transform="translate(-30.49 -11.62)"/>
    <path d="M350.89,386.82q-27.12,0-39.24-15.36t-12.12-48.72q0-33.12,12.12-48.48t39.24-15.36q27.12,0,39.24,15.36t12.12,48.48q0,33.36-12.12,48.72T350.89,386.82Zm26.88-64.08a124.65,124.65,0,0,0-1.56-21.6q-1.56-8.64-4.8-13.8A18,18,0,0,0,363,280a35.08,35.08,0,0,0-24.24,0,18,18,0,0,0-8.4,7.32q-3.24,5.16-4.8,13.8a123.66,123.66,0,0,0-1.56,21.6,127.52,127.52,0,0,0,1.56,22q1.56,8.76,4.8,13.92a17.36,17.36,0,0,0,8.4,7.2,37,37,0,0,0,24.24,0,17.36,17.36,0,0,0,8.4-7.2q3.24-5.16,4.8-13.92A128.54,128.54,0,0,0,377.77,322.74Z" transform="translate(-30.49 -11.62)"/>
    <path d="M484.08,261.06q4.8,0,6.48,1.56a5.45,5.45,0,0,1,1.68,4.2V282.9a23.73,23.73,0,0,0-3.36-.24h-3.12a49.06,49.06,0,0,0-17.88,3.12,41,41,0,0,0-15,10.56v87.6H434.4q-5.76,0-5.76-5.52V261.78h14.64a6.61,6.61,0,0,1,4.56,1.32,8.8,8.8,0,0,1,2.16,4.68l1,10.56a55.59,55.59,0,0,1,14.16-12A35.67,35.67,0,0,1,484.08,261.06Z" transform="translate(-30.49 -11.62)"/>
    <path d="M518.64,383.94q-5.76,0-5.76-5.52V261.78h14.64A7.83,7.83,0,0,1,532,263q1.8,1.2,2.28,4.8l1,7.44q14.88-16.08,38.16-16.08,19.68,0,28.08,11.4t8.4,30.36v83H591.36a6,6,0,0,1-4.2-1.44,5.28,5.28,0,0,1-1.56-4.08v-75.6q0-12.48-5.28-17.88T565,279.54q-9.84,0-16.8,4a51.9,51.9,0,0,0-11,8v92.4Z" transform="translate(-30.49 -11.62)"/>
    <path d="M651.12,242.58q-7.92,0-11.4-3t-3.48-10.2q0-7,3.48-10.08t11.4-3.12q7.68,0,11.28,3.12t3.6,10.08q0,7.2-3.6,10.2T651.12,242.58Zm12.24,141.36H644.88q-5.76,0-5.76-5.52V261.78H657.6q5.76,0,5.76,5.52Z" transform="translate(-30.49 -11.62)"/>
    <path d="M698.88,383.94q-5.76,0-5.76-5.52V261.78h14.64a7.83,7.83,0,0,1,4.44,1.2q1.8,1.2,2.28,4.8l1,7.44q14.88-16.08,38.16-16.08,19.67,0,28.08,11.4t8.4,30.36v83H771.6a5.93,5.93,0,0,1-4.2-1.44,5.28,5.28,0,0,1-1.56-4.08v-75.6q0-12.48-5.28-17.88t-15.36-5.4q-9.86,0-16.8,4a51.65,51.65,0,0,0-11,8v92.4Z" transform="translate(-30.49 -11.62)"/>
    <path d="M818.87,211.62h18.48a6,6,0,0,1,4.2,1.44,5.28,5.28,0,0,1,1.56,4.08v95a208.81,208.81,0,0,0,27.12-26.28q10.8-12.84,19-24.12h18q4.08,0,4.08,4.32a10.75,10.75,0,0,1-2.4,6,92.49,92.49,0,0,1-6.24,8.52q-4.32,5.4-10.32,11.88t-13.2,13.44a177,177,0,0,1-14.64,12.72,209.32,209.32,0,0,1,16.2,14.52q7.32,7.32,13.8,15.24t12.36,16.68q5.88,8.76,11.64,18.84H896.31q-3.33,0-4.88-1.44a12.36,12.36,0,0,1-2.74-4.08q-4.35-7-8.92-13.32a158.79,158.79,0,0,0-10.13-12.6q-5.55-6.24-12.06-12.72t-14.47-13.44v57.6H824.63q-5.76,0-5.76-5.52Z" transform="translate(-30.49 -11.62)"/>
  </g>
</svg>
